<?xml version="1.0" encoding="UTF-8" standalone="no"?>
<svg width="90px" height="89px" viewBox="0 0 90 89" version="1.1" xmlns="http://www.w3.org/2000/svg" xmlns:xlink="http://www.w3.org/1999/xlink" xmlns:sketch="http://www.bohemiancoding.com/sketch/ns">
    <!-- Generator: Sketch 3.4.4 (17249) - http://www.bohemiancoding.com/sketch -->
    <title>Mix</title>
    <desc>Created with Sketch.</desc>
    <defs></defs>
    <g id="Page-1" stroke="none" stroke-width="1" fill="none" fill-rule="evenodd" sketch:type="MSPage">
        <g id="Mix" sketch:type="MSLayerGroup" fill="#000000">
            <path d="M1.25,46.25 L4.72,46.25 C6.332,46.25 6.332,43.75 4.72,43.75 L1.25,43.75 C-0.362,43.75 -0.362,46.25 1.25,46.25 L1.25,46.25 Z" id="Shape" sketch:type="MSShapeGroup"></path>
            <path d="M88.75,43.75 L42.086,43.75 C40.474,43.75 40.474,46.25 42.086,46.25 L88.75,46.25 C90.362,46.25 90.362,43.75 88.75,43.75 L88.75,43.75 Z" id="Shape" sketch:type="MSShapeGroup"></path>
            <path d="M88.75,28.75 L37.328,28.75 C35.716,28.75 35.716,31.25 37.328,31.25 L88.75,31.25 C90.362,31.25 90.362,28.75 88.75,28.75 L88.75,28.75 Z" id="Shape" sketch:type="MSShapeGroup"></path>
            <path d="M1.25,31.25 L15.65,31.25 C17.262,31.25 17.262,28.75 15.65,28.75 L1.25,28.75 C-0.362,28.75 -0.362,31.25 1.25,31.25 L1.25,31.25 Z" id="Shape" sketch:type="MSShapeGroup"></path>
            <path d="M88.75,13.75 L41.787,13.75 C40.175,13.75 40.175,16.25 41.787,16.25 L88.75,16.25 C90.362,16.25 90.362,13.75 88.75,13.75 L88.75,13.75 Z" id="Shape" sketch:type="MSShapeGroup"></path>
            <path d="M1.25,16.25 L16.788,16.25 C18.4,16.25 18.4,13.75 16.788,13.75 L1.25,13.75 C-0.362,13.75 -0.362,16.25 1.25,16.25 L1.25,16.25 Z" id="Shape" sketch:type="MSShapeGroup"></path>
            <path d="M88.75,58.75 L47.5,58.75 C45.888,58.75 45.888,61.25 47.5,61.25 L88.75,61.25 C90.362,61.25 90.362,58.75 88.75,58.75 L88.75,58.75 Z" id="Shape" sketch:type="MSShapeGroup"></path>
            <path d="M1.25,61.25 L3.517,61.25 C5.129,61.25 5.129,58.75 3.517,58.75 L1.25,58.75 C-0.362,58.75 -0.362,61.25 1.25,61.25 L1.25,61.25 Z" id="Shape" sketch:type="MSShapeGroup"></path>
            <path d="M1.25,76.25 L11.811,76.25 C13.423,76.25 13.423,73.75 11.811,73.75 L1.25,73.75 C-0.362,73.75 -0.362,76.25 1.25,76.25 L1.25,76.25 Z" id="Shape" sketch:type="MSShapeGroup"></path>
            <path d="M88.75,73.75 L40.662,73.75 C39.05,73.75 39.05,76.25 40.662,76.25 L88.75,76.25 C90.362,76.25 90.362,73.75 88.75,73.75 L88.75,73.75 Z" id="Shape" sketch:type="MSShapeGroup"></path>
            <path d="M11.449,43.399 C7.445,49.374 6.947,57.215 10.122,63.663 C13.702,70.934 21.66,75.741 29.819,73.953 C30.242,77.453 31.31,82.573 26.632,83.591 C27.481,79.78 23.658,76.431 19.991,77.822 C16.335,79.209 15.821,83.978 18.661,86.434 C21.529,88.914 25.911,89.373 29.373,87.982 C33,86.525 35.302,82.837 35.302,78.964 C35.302,76.673 34.926,74.376 34.631,72.109 C40.041,68.998 43.448,62.909 42.263,56.642 C41.155,50.783 36.291,46.069 30.248,45.749 C29.57,41.754 28.846,37.428 28.111,32.888 C32.691,27.992 36.704,22.181 36.766,15.021 C36.801,11.004 36.325,6.201 32.533,1.022 C31.797,0.019 30.436,-0.29 29.34,0.293 C22.31,4.042 20.215,13.883 22.785,31.201 C21.577,32.407 20.338,33.575 19.133,34.712 C15.792,37.863 12.897,40.592 11.449,43.399 L11.449,43.399 Z M33.633,51.889 C35.952,53.47 37.396,56.098 37.502,58.902 C37.617,61.935 36.09,64.691 33.804,66.607 C33.295,63.475 31.379,52.353 31.127,50.887 C32.042,51.061 32.902,51.391 33.633,51.889 C35.591,53.224 32.902,51.391 33.633,51.889 L33.633,51.889 Z M29.877,6.147 C31.449,9.076 31.795,11.857 31.768,14.978 C31.732,19.159 29.84,22.892 27.193,26.304 C26.079,16.143 26.979,9.39 29.877,6.147 L29.877,6.147 Z M22.564,38.35 C22.956,37.981 23.353,37.606 23.754,37.226 C24.279,40.418 24.794,43.484 25.284,46.375 C21.497,47.562 18.274,50.47 17.509,54.476 C16.785,58.267 18.425,62.22 21.609,64.392 C22.75,65.17 24.305,64.875 25.083,63.735 C25.861,62.595 25.567,61.04 24.426,60.261 C22.895,59.218 22.093,57.331 22.407,55.503 C22.749,53.511 24.33,52.101 26.138,51.38 C26.412,52.974 26.674,54.498 26.923,55.943 C27.812,61.104 28.582,65.571 29.119,68.984 C21.378,70.898 14.42,64.492 13.223,57.126 C12.691,53.853 13.244,50.445 14.803,47.517 C16.74,43.876 19.591,41.153 22.564,38.35 L22.564,38.35 Z" id="Shape" sketch:type="MSShapeGroup"></path>
        </g>
    </g>
</svg>