<?xml version="1.0" encoding="UTF-8" standalone="no"?>
<svg width="86px" height="92px" viewBox="0 0 86 92" version="1.1" xmlns="http://www.w3.org/2000/svg" xmlns:xlink="http://www.w3.org/1999/xlink" xmlns:sketch="http://www.bohemiancoding.com/sketch/ns">
    <!-- Generator: Sketch 3.4.4 (17249) - http://www.bohemiancoding.com/sketch -->
    <title>Treble</title>
    <desc>Created with Sketch.</desc>
    <defs></defs>
    <g id="Page-1" stroke="none" stroke-width="1" fill="none" fill-rule="evenodd" sketch:type="MSPage">
        <g id="Treble" sketch:type="MSLayerGroup" fill="#000000">
            <g id="Group" sketch:type="MSShapeGroup">
                <g id="Shape">
                    <path d="M68.2,39.501 C69.318,39.501 70.099,38.72 70.099,37.601 L70.099,13.801 C70.099,12.682 69.318,11.901 68.2,11.901 C67.081,11.901 66.3,12.682 66.3,13.801 L66.3,37.601 C66.3,38.72 67.081,39.501 68.2,39.501 L68.2,39.501 Z"></path>
                    <path d="M51.4,37.101 C50.281,37.101 49.5,37.882 49.5,39.001 L49.5,78.2 C49.5,79.319 50.281,80.1 51.4,80.1 C52.518,80.1 53.299,79.319 53.299,78.2 L53.299,39.001 C53.3,37.882 52.519,37.101 51.4,37.101 L51.4,37.101 Z"></path>
                    <path d="M17.8,52.501 C16.681,52.501 15.9,53.282 15.9,54.4 L15.9,78.2 C15.9,79.319 16.681,80.1 17.8,80.1 C18.919,80.1 19.7,79.319 19.7,78.2 L19.7,54.4 C19.7,53.282 18.919,52.501 17.8,52.501 L17.8,52.501 Z"></path>
                    <path d="M68.2,52.501 C67.081,52.501 66.3,53.282 66.3,54.4 L66.3,78.2 C66.3,79.319 67.081,80.1 68.2,80.1 C69.318,80.1 70.099,79.319 70.099,78.2 L70.099,54.4 C70.1,53.282 69.318,52.501 68.2,52.501 L68.2,52.501 Z"></path>
                    <path d="M34.6,67.9 C33.481,67.9 32.7,68.681 32.7,69.799 L32.7,78.199 C32.7,79.318 33.481,80.099 34.6,80.099 C35.719,80.099 36.5,79.318 36.5,78.199 L36.5,69.799 C36.5,68.682 35.719,67.9 34.6,67.9 L34.6,67.9 Z"></path>
                    <path d="M65.4,50.7 L71,50.7 C72.819,50.7 74.3,49.22 74.3,47.4 L74.3,44.6 C74.3,42.78 72.82,41.299 71,41.299 L65.4,41.299 C63.58,41.299 62.099,42.779 62.099,44.6 L62.099,47.4 C62.1,49.22 63.58,50.7 65.4,50.7 L65.4,50.7 Z M65.9,46.9 L65.9,45.1 L70.5,45.1 L70.5,46.9 L65.9,46.9 L65.9,46.9 Z"></path>
                    <path d="M51.4,24.101 C52.518,24.101 53.299,23.32 53.299,22.201 L53.299,13.802 C53.299,12.683 52.518,11.902 51.4,11.902 C50.281,11.902 49.5,12.683 49.5,13.802 L49.5,22.2 C49.5,23.319 50.281,24.101 51.4,24.101 L51.4,24.101 Z"></path>
                    <path d="M17.8,39.501 C18.919,39.501 19.7,38.72 19.7,37.601 L19.7,13.801 C19.7,12.682 18.919,11.901 17.8,11.901 C16.681,11.901 15.9,12.682 15.9,13.801 L15.9,37.601 C15.9,38.72 16.682,39.501 17.8,39.501 L17.8,39.501 Z"></path>
                    <path d="M79.399,0.7 L6.6,0.7 C3.236,0.7 0.5,3.436 0.5,6.801 L0.5,85.2 C0.5,88.563 3.236,91.3 6.6,91.3 L79.399,91.3 C82.763,91.3 85.5,88.564 85.5,85.2 L85.5,6.801 C85.5,3.437 82.764,0.7 79.399,0.7 L79.399,0.7 Z M4.3,6.801 C4.3,5.532 5.332,4.5 6.6,4.5 L79.399,4.5 C80.668,4.5 81.7,5.532 81.7,6.801 L81.7,85.2 C81.7,86.469 80.668,87.501 79.399,87.501 L6.6,87.501 C5.332,87.501 4.3,86.469 4.3,85.2 L4.3,6.801 L4.3,6.801 Z"></path>
                    <path d="M15,50.7 L20.6,50.7 C22.42,50.7 23.9,49.22 23.9,47.4 L23.9,44.6 C23.9,42.78 22.42,41.299 20.6,41.299 L15,41.299 C13.181,41.299 11.7,42.779 11.7,44.6 L11.7,47.4 C11.7,49.22 13.181,50.7 15,50.7 L15,50.7 Z M15.5,46.9 L15.5,45.1 L20.1,45.1 L20.1,46.9 L15.5,46.9 L15.5,46.9 Z"></path>
                    <path d="M48.6,35.301 L54.2,35.301 C56.019,35.301 57.5,33.821 57.5,32.001 L57.5,29.2 C57.5,27.381 56.02,25.9 54.2,25.9 L48.6,25.9 C46.781,25.9 45.3,27.38 45.3,29.2 L45.3,32.001 C45.3,33.82 46.78,35.301 48.6,35.301 L48.6,35.301 Z M49.1,31.501 L49.1,29.7 L53.7,29.7 L53.7,31.501 L49.1,31.501 L49.1,31.501 Z"></path>
                    <path d="M34.6,54.9 C35.719,54.9 36.5,54.119 36.5,53.001 L36.5,13.801 C36.5,12.682 35.719,11.901 34.6,11.901 C33.481,11.901 32.7,12.682 32.7,13.801 L32.7,53.001 C32.7,54.119 33.481,54.9 34.6,54.9 L34.6,54.9 Z"></path>
                    <path d="M31.8,66.101 L37.4,66.101 C39.22,66.101 40.7,64.621 40.7,62.8 L40.7,60.001 C40.7,58.181 39.22,56.7 37.4,56.7 L31.8,56.7 C29.98,56.7 28.5,58.18 28.5,60.001 L28.5,62.8 C28.5,64.62 29.98,66.101 31.8,66.101 L31.8,66.101 Z M32.3,62.3 L32.3,60.501 L36.9,60.501 L36.9,62.3 L32.3,62.3 L32.3,62.3 Z"></path>
                </g>
            </g>
        </g>
    </g>
</svg>