<?xml version="1.0" encoding="UTF-8" standalone="no"?>
<svg width="87px" height="87px" viewBox="0 0 87 87" version="1.1" xmlns="http://www.w3.org/2000/svg" xmlns:xlink="http://www.w3.org/1999/xlink" xmlns:sketch="http://www.bohemiancoding.com/sketch/ns">
    <!-- Generator: Sketch 3.4.4 (17249) - http://www.bohemiancoding.com/sketch -->
    <title>Wrench</title>
    <desc>Created with Sketch.</desc>
    <defs></defs>
    <g id="Page-1" stroke="none" stroke-width="1" fill="none" fill-rule="evenodd" sketch:type="MSPage">
        <g id="Wrench" sketch:type="MSLayerGroup" fill="#000000">
            <g id="Group" sketch:type="MSShapeGroup">
                <g id="Shape">
                    <path d="M40.6413676,25.5191471 C42.2960735,18.7996765 40.4993529,11.40425 35.2490735,6.15439706 C29.4976912,0.403014706 21.1721324,-1.20435294 13.9809853,1.32973529 L26.419,13.76775 C28.1351176,15.4842941 28.1351176,18.2670147 26.419,19.9839853 L23.7266912,22.6762941 C23.5735882,22.8127647 23.4162206,22.9428382 23.2695147,23.0895441 C23.1228088,23.23625 22.9931618,23.3931912 22.8571176,23.5458676 L20.1639559,26.2390294 C18.4474118,27.9555735 15.6638382,27.9555735 13.9477206,26.2390294 L1.50927941,13.8010147 C-1.02523529,20.9925882 0.581705882,29.3177206 6.33351471,35.0695294 C11.5837941,40.3198088 18.9796471,42.1169559 25.6991176,40.46225 L68.7393824,83.5020882 C72.8654853,87.6281912 79.5551029,87.6281912 83.6816324,83.5020882 C87.8081618,79.3755588 87.8081618,72.6855147 83.6816324,68.5594118 L40.6413676,25.5191471 L40.6413676,25.5191471 Z M79.0420588,78.8625147 C77.1425588,80.7624412 74.0617353,80.7624412 72.1618088,78.8629412 C70.2627353,76.9634412 70.2627353,73.8826176 72.1626618,71.9831176 C74.0625882,70.0827647 77.1425588,70.0831912 79.0424853,71.9826912 C80.9419853,73.8821912 80.9419853,76.9621618 79.0420588,78.8625147 L79.0420588,78.8625147 Z"></path>
                    <path d="M49.9013235,30.4598088 L73.2650882,7.09647059 C73.8335735,6.52755882 74.7551765,6.52713235 75.3245147,7.09604412 C75.893,7.66495588 75.893,8.58783824 75.3245147,9.15632353 L51.9611765,32.5196618 L55.3311471,35.8896324 L78.6940588,12.5262941 C79.2633971,11.9573824 80.1858529,11.9578088 80.7543382,12.5262941 C81.32325,13.0952059 81.32325,14.0172353 80.7543382,14.5861471 L57.391,37.9494853 L57.391,37.9499118 L61.1175,41.6764118 L83.8419853,18.9519265 C87.9680882,14.8258235 87.9680882,8.13577941 83.8419853,4.00925 C79.7154559,-0.116852941 73.0254118,-0.117279412 68.8993088,4.00925 L46.1748235,26.7337353 L49.9013235,30.4598088 L49.9013235,30.4598088 L49.9013235,30.4598088 Z"></path>
                    <path d="M31.0581471,50.7798529 L17.2503088,65.1071324 L10.3649412,66.9520441 L1.10498529,81.2814559 L6.17572059,86.3517647 L20.5047059,77.0926618 L22.3500441,70.2072941 L36.6764706,56.3986029 L31.0581471,50.7798529 Z"></path>
                </g>
            </g>
        </g>
    </g>
</svg>